<?xml version="1.0" encoding="UTF-8"?>
<svg version="1.1" viewBox="0 0 1000 1000" xml:space="preserve" xmlns="http://www.w3.org/2000/svg">
<desc>Created with Fabric.js 3.5.0</desc>
<defs>

<linearGradient id="a" x1="64" x2="448" y1="64" y2="448" gradientUnits="userSpaceOnUse">
<stop stop-color="#ff003d" offset="0"/>
<stop stop-color="#3d00eb" offset="1"/>
</linearGradient>
<filter id="b" x="-.058064" y="-.046153" width="1.1202" height="1.1276">
	<feGaussianBlur in="SourceAlpha" stdDeviation="6"/>
	<feOffset dx="1" dy="11" result="oBlur"/>
	<feFlood flood-color="rgb(0,0,0)"/>
	<feComposite in2="oBlur" operator="in"/>
	<feMerge>
		<feMergeNode/>
		<feMergeNode in="SourceGraphic"/>
	</feMerge>
</filter>

</defs>

<path transform="matrix(1.9592,0,0,1.9592,-1.5663,-1.5663)" d="m182.4 111.2c-9.278-12.371-26.829-14.878-39.2-5.6-12.371 9.279-14.878 26.829-5.6 39.2l83.4 111.2-83.4 111.2c-9.278 12.371-6.771 29.922 5.6 39.2 12.371 9.279 29.922 6.771 39.2-5.6l73.6-98.133 73.6 98.133c9.279 12.371 26.829 14.879 39.2 5.6 12.371-9.278 14.879-26.829 5.6-39.2l-83.4-111.2 83.4-111.2c9.279-12.371 6.771-29.921-5.6-39.2-12.371-9.2782-29.921-6.771-39.2 5.6l-73.6 98.134zm-29.6 7.2c5.302-3.976 12.824-2.902 16.8 2.4l80 106.67c1.511 2.014 3.882 3.2 6.4 3.2s4.889-1.186 6.4-3.2l80-106.67c3.977-5.302 11.498-6.376 16.8-2.4 5.302 3.977 6.377 11.498 2.4 16.8l-87 116c-2.133 2.845-2.133 6.756 0 9.6l87 116c3.977 5.302 2.902 12.824-2.4 16.8-5.302 3.977-12.823 2.902-16.8-2.4l-80-106.67c-1.511-2.014-3.882-3.199-6.4-3.199s-4.889 1.185-6.4 3.199l-80 106.67c-3.976 5.302-11.498 6.377-16.8 2.4-5.302-3.976-6.376-11.498-2.4-16.8l87-116c2.134-2.844 2.134-6.755 0-9.6l-87-116c-3.976-5.302-2.902-12.823 2.4-16.8z" fill="url(#a)" fill-rule="evenodd" filter="url(#b)" stroke-linecap="round" vector-effect="non-scaling-stroke"/>
</svg>
